<svg width="18" height="19" viewBox="0 0 18 19" fill="none" xmlns="http://www.w3.org/2000/svg">
<path d="M9 7.77417V11.2366H13.8438C13.6365 12.3573 12.9994 13.302 12.0489 13.9352V16.1815H14.9562C16.6601 14.6237 17.641 12.3321 17.641 9.60841C17.641 8.97522 17.5854 8.36213 17.4792 7.77919H9V7.77417Z" fill="#3E82F1"/>
<path d="M9.00001 14.7896C6.65394 14.7896 4.67192 13.2166 3.96406 11.101H0.955627V13.4227C2.43709 16.3424 5.48091 18.3475 9.00001 18.3475C11.432 18.3475 13.4697 17.5485 14.9562 16.1816L12.0489 13.9353C11.245 14.473 10.2135 14.7896 9.00001 14.7896Z" fill="#32A753"/>
<path d="M3.96404 5.38721H0.955617C0.348876 6.59329 0 7.96018 0 9.40245C0 10.8447 0.348876 12.2116 0.955617 13.4177L3.96404 11.101C3.78202 10.5633 3.6809 9.99042 3.6809 9.40245C3.6809 8.81449 3.78202 8.2416 3.96404 7.70389V5.38721Z" fill="#F9BB00"/>
<path d="M0.955627 5.38714L3.96406 7.70383C4.67192 5.58816 6.65394 4.01522 9.00001 4.01522C10.3197 4.01522 11.5079 4.4675 12.4382 5.35196L15.0219 2.78401C13.4646 1.34174 11.427 0.457275 9.00001 0.457275C5.48091 0.457275 2.43709 2.46239 0.955627 5.38714Z" fill="#E74133"/>
</svg>
