<svg width="18" height="18" viewBox="0 0 18 18" fill="none" xmlns="http://www.w3.org/2000/svg">
    <path d="M17.0062 0H0.99375C0.445312 0 0 0.445312 0 0.99375V17.0062C0 17.5547 0.445312 18 0.99375 18H9V10.875H6.84844V8.25H9V6.30938C9 3.98438 10.6125 2.71875 12.6891 2.71875C13.6828 2.71875 14.7516 2.79375 15 2.82656V5.25469H13.3453C12.2156 5.25469 12 5.78906 12 6.57656V8.25H14.6906L14.3391 10.875H12V18H17.0062C17.5547 18 18 17.5547 18 17.0062V0.99375C18 0.445312 17.5547 0 17.0062 0Z"
          fill="white"/>
</svg>
